{"glyphs":{"0":{"ha":872,"x_min":0,"x_max":771,"o":"m 0 543 l 0 0 l 771 0 l 771 543 l 0 543 m 558 108 l 213 108 l 213 435 l 558 435 l 558 108 z "},"1":{"ha":599,"x_min":0,"x_max":492,"o":"m 0 543 l 0 436 l 279 436 l 279 0 l 492 0 l 492 543 l 0 543 z "},"2":{"ha":879,"x_min":0,"x_max":771,"o":"m 771 221 l 771 544 l 219 546 l 221 435 l 558 435 l 558 322 l 0 322 l 0 0 l 771 0 l 771 108 l 213 108 l 213 221 l 771 221 z "},"3":{"ha":853,"x_min":-1,"x_max":731,"o":"m 179 542 l 179 433 l 518 433 l 518 321 l 0 321 l -1 218 l 518 218 l 518 101 l 0 101 l -1 -1 l 731 -1 l 731 542 l 179 542 z "},"4":{"ha":872,"x_min":0,"x_max":767,"o":"m 554 544 l 554 328 l 213 328 l 213 544 l 0 544 l 0 221 l 554 221 l 554 1 l 767 1 l 767 544 l 554 544 z "},"5":{"ha":875,"x_min":0,"x_max":771,"o":"m 213 322 l 213 435 l 550 435 l 550 543 l 0 543 l 0 221 l 558 221 l 558 108 l 0 108 l 0 0 l 771 0 l 771 322 l 213 322 z "},"6":{"ha":868,"x_min":0,"x_max":771,"o":"m 213 322 l 213 435 l 550 435 l 550 543 l 0 543 l 0 0 l 771 0 l 771 322 l 213 322 m 213 108 l 213 221 l 558 221 l 558 108 l 213 108 z "},"7":{"ha":872,"x_min":0,"x_max":771,"o":"m 0 543 l 0 435 l 558 435 l 558 0 l 771 0 l 771 543 l 0 543 z "},"8":{"ha":872,"x_min":0,"x_max":771,"o":"m 0 543 l 0 0 l 771 0 l 771 543 l 0 543 m 558 435 l 558 322 l 558 322 l 213 322 l 213 435 l 558 435 m 213 108 l 213 221 l 558 221 l 558 108 l 213 108 z "},"9":{"ha":872,"x_min":0,"x_max":771,"o":"m 0 544 l 0 221 l 558 221 l 558 110 l 221 110 l 221 1 l 771 1 l 771 544 l 0 544 m 558 324 l 213 324 l 213 436 l 558 436 l 558 324 z "}," ":{"ha":694,"x_min":0,"x_max":0,"o":""},"!":{"ha":315,"x_min":-4,"x_max":213,"o":"m 213 0 l 213 107 l -4 107 l -4 0 l 213 0 m 213 544 l 0 544 l 0 221 l 213 221 l 213 544 z "},"#":{"ha":664,"x_min":0,"x_max":551,"o":"m 551 328 l 439 328 l 439 442 l 551 442 l 551 544 l 439 544 l 439 657 l 336 657 l 336 544 l 221 544 l 221 657 l 118 657 l 118 544 l 0 544 l 0 442 l 118 442 l 118 328 l 0 328 l 0 225 l 118 225 l 118 114 l 221 114 l 221 225 l 336 225 l 336 114 l 439 114 l 439 225 l 551 225 l 551 328 m 221 328 l 221 442 l 336 442 l 336 328 l 221 328 z "},"$":{"ha":643,"x_min":0,"x_max":550,"o":"m 550 492 l 550 600 l 325 600 l 325 679 l 218 679 l 218 599 l 0 599 l 0 276 l 218 276 l 218 165 l 0 165 l 0 57 l 218 57 l 218 0 l 325 0 l 325 57 l 550 57 l 550 379 l 325 379 l 325 492 l 550 492 m 447 276 l 447 165 l 325 165 l 325 276 l 447 276 m 218 379 l 103 379 l 103 492 l 218 492 l 218 379 z "},"(":{"ha":592,"x_min":0,"x_max":492,"o":"m 492 436 l 492 543 l 0 543 l 0 0 l 492 0 l 492 107 l 213 107 l 213 436 l 492 436 z "},")":{"ha":603,"x_min":0,"x_max":492,"o":"m 0 543 l 0 436 l 279 436 l 279 107 l 0 107 l 0 0 l 492 0 l 492 543 l 0 543 z "},",":{"ha":351,"x_min":0,"x_max":228,"o":"m 0 108 l 0 -104 l 228 -104 l 228 108 l 0 108 z "},".":{"ha":354,"x_min":0,"x_max":228,"o":"m 0 107 l 0 0 l 228 0 l 228 107 l 0 107 z "},":":{"ha":354,"x_min":0,"x_max":228,"o":"m 0 322 l 0 217 l 228 217 l 228 322 l 0 322 m 0 107 l 0 0 l 228 0 l 228 107 l 0 107 z "},";":{"ha":351,"x_min":0,"x_max":228,"o":"m 0 108 l 0 -104 l 228 -104 l 228 108 l 0 108 m 0 322 l 0 217 l 228 217 l 228 322 l 0 322 z "},"?":{"ha":879,"x_min":0,"x_max":771,"o":"m 213 221 l 771 221 l 771 547 l 0 547 l 0 435 l 558 435 l 558 322 l 213 322 q 213 217 214 322 l 213 221 m 210 324 m 210 107 l 210 0 l 438 0 l 438 107 l 210 107 z "},"A":{"ha":879,"x_min":0,"x_max":771,"o":"m 554 107 l 554 0 l 326 0 l 326 107 l 554 107 m 0 543 l 0 0 l 213 0 l 213 331 l 664 331 l 664 0 l 771 0 l 771 543 l 0 543 z "},"B":{"ha":875,"x_min":0,"x_max":767,"o":"m 550 107 l 550 0 l 322 0 l 322 107 l 550 107 m 550 322 l 550 543 l 0 543 l 0 543 l 0 0 l 213 0 l 213 217 l 661 217 l 661 0 l 767 0 l 767 322 l 550 322 m 440 328 l 213 328 l 213 435 l 440 435 l 440 328 z "},"C":{"ha":853,"x_min":0,"x_max":771,"o":"m 213 213 l 213 435 l 550 435 l 550 543 l 0 543 l 0 0 l 771 0 l 771 213 l 213 213 z "},"D":{"ha":879,"x_min":0,"x_max":771,"o":"m 228 376 l 228 269 l 0 269 l 0 376 l 228 376 m 0 543 l 0 435 l 558 435 l 558 213 l 0 213 l 0 0 l 771 0 l 771 543 l 0 543 z "},"E":{"ha":872,"x_min":0,"x_max":771,"o":"m 550 376 l 550 269 l 322 269 l 322 376 l 550 376 m 213 213 l 213 435 l 550 435 l 550 543 l 0 543 l 0 0 l 771 0 l 771 213 l 213 213 z "},"F":{"ha":872,"x_min":0,"x_max":771,"o":"m 550 376 l 550 269 l 322 269 l 322 376 l 550 376 m 771 543 l 0 543 l 0 0 l 213 0 l 213 435 l 771 435 l 771 543 z "},"G":{"ha":875,"x_min":0,"x_max":771,"o":"m 771 376 l 771 269 l 543 269 l 543 376 l 771 376 m 213 213 l 213 435 l 550 435 l 550 543 l 0 543 l 0 0 l 771 0 l 771 213 l 213 213 z "},"H":{"ha":872,"x_min":0,"x_max":767,"o":"m 661 543 l 661 326 l 213 326 l 213 543 l 0 543 l 0 0 l 213 0 l 213 221 l 661 221 l 661 0 l 767 0 l 767 543 l 661 543 z "},"I":{"ha":310,"x_min":0,"x_max":213,"o":"m 213 0 l 0 0 l 0 543 l 213 543 l 213 0 z "},"J":{"ha":872,"x_min":0,"x_max":771,"o":"m 447 543 l 447 436 l 221 436 l 221 543 l 447 543 m 558 543 l 558 213 l 0 213 l 0 0 l 771 0 l 771 543 l 558 543 z "},"K":{"ha":868,"x_min":0,"x_max":767,"o":"m 550 322 l 550 543 l 440 543 l 440 328 l 213 328 l 213 543 l 0 543 l 0 543 l 0 0 l 213 0 l 213 217 l 661 217 l 661 0 l 767 0 l 767 322 l 550 322 z "},"L":{"ha":868,"x_min":0,"x_max":771,"o":"m 213 213 l 213 543 l 0 543 l 0 0 l 771 0 l 771 213 l 213 213 z "},"M":{"ha":985,"x_min":0,"x_max":876,"o":"m 550 433 l 550 543 l 0 543 l 0 543 l 0 0 l 210 0 l 210 328 l 440 328 l 440 0 l 550 0 l 550 326 l 771 326 l 771 0 l 876 0 l 876 433 l 550 433 z "},"N":{"ha":879,"x_min":0,"x_max":771,"o":"m 0 543 l 0 0 l 213 0 l 213 331 l 664 331 l 664 0 l 771 0 l 771 543 l 0 543 z "},"O":{"ha":879,"x_min":0,"x_max":771,"o":"m 0 543 l 0 0 l 771 0 l 771 543 l 0 543 m 664 213 l 213 213 l 213 435 l 664 435 l 664 213 z "},"P":{"ha":879,"x_min":0,"x_max":767,"o":"m 767 543 l 0 543 l 0 543 l 0 0 l 213 0 l 213 217 l 767 217 l 767 543 m 657 328 l 213 328 l 213 435 l 657 435 l 657 328 z "},"Q":{"ha":946,"x_min":0,"x_max":888,"o":"m 765 107 l 765 543 l 0 543 l 0 0 l 888 0 l 888 107 l 765 107 m 213 108 l 213 331 l 660 331 l 660 108 l 213 108 z "},"R":{"ha":875,"x_min":0,"x_max":767,"o":"m 767 217 l 767 543 l 0 543 l 0 543 l 0 0 l 213 0 l 213 217 l 342 217 l 342 0 l 767 0 l 767 107 l 447 107 l 447 217 l 767 217 m 213 435 l 657 435 l 657 328 l 213 328 l 213 435 z "},"S":{"ha":871,"x_min":0,"x_max":771,"o":"m 771 435 l 771 544 l 0 544 l 0 221 l 558 221 l 558 108 l 0 108 l 0 0 l 771 0 l 771 322 l 213 322 l 213 435 l 771 435 z "},"T":{"ha":868,"x_min":0,"x_max":771,"o":"m 771 543 l 0 543 l 0 331 l 344 331 l 344 0 l 451 0 l 451 331 l 771 331 l 771 543 z "},"U":{"ha":879,"x_min":0,"x_max":771,"o":"m 664 543 l 664 213 l 213 213 l 213 543 l 0 543 l 0 0 l 771 0 l 771 543 l 664 543 z "},"V":{"ha":875,"x_min":0,"x_max":771,"o":"m 543 543 l 543 436 l 425 436 l 425 331 l 308 331 l 308 224 l 213 224 l 213 543 l 0 543 l 0 0 l 213 0 l 213 118 l 418 118 l 418 224 l 536 224 l 536 331 l 653 331 l 653 436 l 771 436 l 771 543 l 543 543 z "},"W":{"ha":985,"x_min":0,"x_max":876,"o":"m 550 110 l 550 0 l 0 0 l 0 0 l 0 543 l 210 543 l 210 215 l 440 215 l 440 543 l 550 543 l 550 217 l 771 217 l 771 543 l 876 543 l 876 110 l 550 110 z "},"X":{"ha":872,"x_min":0,"x_max":771,"o":"m 453 325 l 453 543 l 347 543 l 347 325 l 213 325 l 213 544 l 0 544 l 0 222 l 347 222 l 347 0 l 453 0 l 453 222 l 558 222 l 558 1 l 771 1 l 771 325 l 453 325 z "},"Y":{"ha":872,"x_min":0,"x_max":767,"o":"m 554 543 l 554 326 l 107 326 l 107 543 l 0 543 l 0 219 l 554 219 l 554 0 l 767 0 l 767 543 l 554 543 z "},"Z":{"ha":872,"x_min":0,"x_max":771,"o":"m 492 213 l 492 543 l 0 543 l 0 436 l 279 436 l 279 0 l 771 0 l 771 213 l 492 213 z "},"[":{"ha":592,"x_min":0,"x_max":492,"o":"m 492 436 l 492 543 l 0 543 l 0 0 l 492 0 l 492 107 l 213 107 l 213 436 l 492 436 z "},"]":{"ha":603,"x_min":0,"x_max":492,"o":"m 0 543 l 0 436 l 279 436 l 279 107 l 0 107 l 0 0 l 492 0 l 492 543 l 0 543 z "},"a":{"ha":678,"x_min":0,"x_max":561,"o":"m 228 107 l 228 0 l 0 0 l 0 107 l 228 107 m 0 322 l 0 215 l 349 215 l 349 0 l 561 0 l 561 322 l 0 322 z "},"b":{"ha":678,"x_min":0,"x_max":561,"o":"m 561 322 l 561 217 l 333 217 l 333 322 l 561 322 m 213 108 l 213 543 l 0 543 l 0 0 l 561 0 l 561 108 l 213 108 z "},"c":{"ha":678,"x_min":0,"x_max":561,"o":"m 561 215 l 561 322 l 0 322 l 0 0 l 561 0 l 561 108 l 213 108 l 213 215 l 561 215 z "},"d":{"ha":678,"x_min":0,"x_max":561,"o":"m 0 322 l 0 217 l 228 217 l 228 322 l 0 322 m 349 543 l 349 108 l 0 108 l 0 0 l 561 0 l 561 543 l 349 543 z "},"e":{"ha":678,"x_min":0,"x_max":561,"o":"m 333 217 l 333 322 l 561 322 l 561 217 l 333 217 m 213 108 l 213 322 l 0 322 l 0 0 l 561 0 l 561 108 l 213 108 z "},"f":{"ha":678,"x_min":0,"x_max":561,"o":"m 561 221 l 561 326 l 333 326 l 333 221 l 561 221 m 561 543 l 0 543 l 0 0 l 213 0 l 213 435 l 561 435 l 561 543 z "},"g":{"ha":678,"x_min":0,"x_max":561,"o":"m 0 -221 m 0 322 l 0 0 l 213 0 l 213 215 l 349 215 l 349 -112 l 0 -112 l 0 -221 l 561 -221 l 561 322 l 0 322 z "},"h":{"ha":678,"x_min":0,"x_max":561,"o":"m 213 322 l 213 543 l 0 543 l 0 0 l 213 0 l 213 215 l 349 215 l 349 0 l 561 0 l 561 322 l 213 322 z "},"i":{"ha":315,"x_min":-4,"x_max":213,"o":"m 213 0 l 0 0 l 0 322 l 213 322 l 213 0 m 213 543 l 213 436 l -4 436 l -4 543 l 213 543 z "},"j":{"ha":315,"x_min":-4,"x_max":213,"o":"m 213 543 l 213 436 l -4 436 l -4 543 l 213 543 m 213 -218 l 0 -218 l 0 325 l 213 325 l 213 -218 z "},"k":{"ha":678,"x_min":0,"x_max":561,"o":"m 561 108 l 561 1 l 333 1 l 333 108 l 561 108 m 333 429 l 333 322 l 213 322 l 213 543 l 0 543 l 0 0 l 213 0 l 213 215 l 561 215 l 561 429 l 333 429 z "},"l":{"ha":310,"x_min":0,"x_max":213,"o":"m 213 0 l 0 0 l 0 543 l 213 543 l 213 0 z "},"m":{"ha":1004,"x_min":0,"x_max":890,"o":"m 556 107 l 556 0 l 328 0 l 328 107 l 556 107 m 0 322 l 0 0 l 213 0 l 213 215 l 676 215 l 676 0 l 890 0 l 890 322 l 0 322 z "},"n":{"ha":678,"x_min":0,"x_max":561,"o":"m 0 322 l 0 0 l 213 0 l 213 215 l 349 215 l 349 0 l 561 0 l 561 322 l 0 322 z "},"o":{"ha":678,"x_min":0,"x_max":561,"o":"m 0 322 l 0 0 l 561 0 l 561 322 l 0 322 m 213 108 l 213 215 l 349 215 l 349 108 l 213 108 z "},"p":{"ha":678,"x_min":0,"x_max":561,"o":"m 561 0 l 561 107 l 333 107 l 333 0 l 561 0 m 561 322 l 0 322 l 0 -221 l 213 -221 l 213 215 l 561 215 l 561 322 z "},"q":{"ha":678,"x_min":0,"x_max":561,"o":"m 0 0 l 0 107 l 228 107 l 228 0 l 0 0 m 0 322 l 0 215 l 349 215 l 349 -221 l 561 -221 l 561 322 l 0 322 z "},"r":{"ha":678,"x_min":0,"x_max":561,"o":"m 561 322 l 0 322 l 0 0 l 213 0 l 213 215 l 561 215 l 561 322 z "},"s":{"ha":678,"x_min":0,"x_max":561,"o":"m 176 108 l 0 108 l 0 0 l 389 0 l 389 215 l 561 215 l 561 322 l 176 322 l 176 108 z "},"t":{"ha":668,"x_min":0,"x_max":561,"o":"m 440 221 l 440 326 l 213 326 l 213 543 l 0 543 l 0 0 l 561 0 l 561 108 l 213 108 l 213 221 l 440 221 z "},"u":{"ha":678,"x_min":0,"x_max":561,"o":"m 561 322 l 349 322 l 349 108 l 213 108 l 213 322 l 0 322 l 0 0 l 561 0 l 561 322 z "},"v":{"ha":678,"x_min":0,"x_max":561,"o":"m 333 217 l 333 322 l 561 322 l 561 217 l 333 217 m 213 107 l 213 322 l 0 322 l 0 0 l 440 0 l 440 107 l 213 107 z "},"w":{"ha":1007,"x_min":0,"x_max":890,"o":"m 333 217 l 333 322 l 561 322 l 561 217 l 333 217 m 676 322 l 676 108 l 213 108 l 213 322 l 0 322 l 0 0 l 890 0 l 890 322 l 676 322 z "},"x":{"ha":678,"x_min":0,"x_max":560,"o":"m 560 217 l 560 322 l 332 322 l 332 221 l 228 221 l 228 322 l 0 322 l 0 217 l 167 217 l 167 107 l 0 107 l 0 0 l 228 0 l 228 107 l 332 107 l 332 0 l 560 0 l 560 107 l 393 107 l 393 217 l 560 217 z "},"y":{"ha":678,"x_min":0,"x_max":561,"o":"m 349 322 l 349 108 l 213 108 l 213 322 l 0 322 l 0 0 l 349 0 l 349 -221 l 561 -221 l 561 322 l 349 322 z "},"z":{"ha":678,"x_min":0,"x_max":561,"o":"m 385 108 l 385 322 l 0 322 l 0 215 l 172 215 l 172 0 l 561 0 l 561 108 l 385 108 z "},"¿":{"ha":879,"x_min":0,"x_max":771,"o":"m 558 326 l 0 326 l 0 0 l 771 0 l 771 113 l 213 113 l 213 225 l 558 225 q 558 331 557 225 l 558 326 m 561 224 m 561 440 l 561 547 l 333 547 l 333 440 l 561 440 z "},"¡":{"ha":315,"x_min":-4,"x_max":213,"o":"m 213 544 l 213 438 l -4 438 l -4 544 l 213 544 m 213 0 l 0 0 l 0 324 l 213 324 l 213 0 z "}}}
